<svg width="19" height="18" viewBox="0 0 19 18" fill="none" xmlns="http://www.w3.org/2000/svg">
<path d="M7.5 9.71118C9.706 9.71118 11.5 7.91718 11.5 5.71118C11.5 3.50518 9.706 1.71118 7.5 1.71118C5.294 1.71118 3.5 3.50518 3.5 5.71118C3.5 7.91718 5.294 9.71118 7.5 9.71118ZM9 10.7112H6C2.691 10.7112 0 13.4022 0 16.7112V17.7112H15V16.7112C15 13.4022 12.309 10.7112 9 10.7112Z" fill="black"/>
<path d="M14.6041 8.75915C15.2131 7.72124 15.4761 6.51646 15.3551 5.31915C15.1761 3.53515 14.1801 1.95815 12.5521 0.87915L11.4471 2.54515C12.5661 3.28715 13.2471 4.34415 13.3651 5.51915C13.4195 6.06525 13.3515 6.61661 13.1661 7.13313C12.9806 7.64966 12.6824 8.11836 12.2931 8.50515L11.1011 9.69715L12.7191 10.1722C16.9511 11.4122 17.0001 15.6681 17.0001 15.7112H19.0001C19.0001 13.9221 18.0441 10.4262 14.6041 8.75915Z" fill="black"/>
</svg>
