<svg width="20" height="21" viewBox="0 0 20 21" fill="none" xmlns="http://www.w3.org/2000/svg">
<path d="M10 0.0111694C4.486 0.0111694 0 4.49717 0 10.0112C0 15.5252 4.486 20.0112 10 20.0112C15.514 20.0112 20 15.5252 20 10.0112C20 4.49717 15.514 0.0111694 10 0.0111694ZM2 10.0112C2 9.11217 2.156 8.24917 2.431 7.44217L4 9.01117L6 11.0112V13.0112L8 15.0112L9 16.0112V17.9422C5.061 17.4472 2 14.0832 2 10.0112ZM16.33 14.8842C15.677 14.3582 14.687 14.0112 14 14.0112V13.0112C14 12.4807 13.7893 11.972 13.4142 11.597C13.0391 11.2219 12.5304 11.0112 12 11.0112H8V8.01117C8.53043 8.01117 9.03914 7.80046 9.41421 7.42538C9.78929 7.05031 10 6.5416 10 6.01117V5.01117H11C11.5304 5.01117 12.0391 4.80046 12.4142 4.42538C12.7893 4.05031 13 3.5416 13 3.01117V2.60017C15.928 3.78917 18 6.66117 18 10.0112C17.9998 11.7759 17.4123 13.4903 16.33 14.8842Z" fill="#343434"/>
</svg>
