<svg width="20" height="21" viewBox="0 0 20 21" fill="none" xmlns="http://www.w3.org/2000/svg">
<path d="M10 0.0111694C4.486 0.0111694 0 4.49717 0 10.0112C0 15.5252 4.486 20.0112 10 20.0112C15.514 20.0112 20 15.5252 20 10.0112C20 4.49717 15.514 0.0111694 10 0.0111694ZM11 16.0112H9V14.0112H11V16.0112ZM11.976 11.1262C11.78 11.2842 11.591 11.4352 11.441 11.5852C11.033 11.9922 11.001 12.3622 11 12.3782V12.5112H9V12.3442C9 12.2262 9.029 11.1672 10.026 10.1702C10.221 9.97517 10.463 9.77717 10.717 9.57117C11.451 8.97617 11.933 8.54217 11.933 7.94417C11.9214 7.43899 11.7125 6.95842 11.3511 6.60529C10.9896 6.25216 10.5043 6.05451 9.99901 6.05464C9.4937 6.05477 9.0085 6.25267 8.64725 6.60599C8.28599 6.95931 8.07736 7.43998 8.066 7.94517H6.066C6.066 5.77617 7.831 4.01117 10 4.01117C12.169 4.01117 13.934 5.77617 13.934 7.94517C13.934 9.54217 12.755 10.4952 11.976 11.1262Z" fill="#343434"/>
</svg>
