<svg width="20" height="18" viewBox="0 0 20 18" fill="none" xmlns="http://www.w3.org/2000/svg">
<path d="M7.00707 12.0032C7.00707 11.4494 7.45617 11.0003 8.00369 11.0003H12.0025C12.5561 11.0003 13.0052 11.4494 13.0052 12.0032C13.0052 12.5569 12.5561 12.9998 12.0025 12.9998H8.00369C7.45002 13.006 7.00707 12.5569 7.00707 12.0032ZM4.50323 8.00415C4.50323 7.45044 4.95232 7.00748 5.506 7.00748H14.5063C15.06 7.00748 15.5029 7.45659 15.5029 8.00415C15.5029 8.55786 15.0538 9.00698 14.5063 9.00698H5.506C4.95232 9.00083 4.50323 8.55786 4.50323 8.00415ZM9.83697 0C8.09597 0.00615232 6.36112 0.10459 4.62012 0.28916C2.33159 0.5291 0.522916 2.36248 0.239926 4.64499C0.086127 5.90622 0.00615195 7.16744 0 8.42866V8.57633C0.00615195 9.83756 0.079975 11.0988 0.239926 12.3661C0.522916 14.6487 2.33159 16.4821 4.62012 16.722C6.31806 16.9004 8.016 16.9988 9.71393 17.0112H10.2861C11.984 16.9988 13.6819 16.9066 15.3799 16.722C17.6684 16.4821 19.4771 14.6487 19.7601 12.3661C19.92 11.0803 20 9.79448 20 8.50865C20 7.22281 19.92 5.93698 19.7601 4.65115C19.4771 2.36864 17.6684 0.53524 15.3799 0.295299C13.6389 0.11073 11.904 0.0122919 10.163 0.00613955H9.83697V0Z" fill="#343434"/>
</svg>
