<svg width="14" height="14" viewBox="0 0 14 14" fill="none" xmlns="http://www.w3.org/2000/svg">
<circle cx="7" cy="7" r="7" fill="#474948"/>
<path d="M10.1441 9.48087C10.2322 9.56893 10.2817 9.68836 10.2817 9.8129C10.2817 9.93743 10.2322 10.0569 10.1441 10.1449C10.0561 10.233 9.93664 10.2825 9.81211 10.2825C9.68757 10.2825 9.56814 10.233 9.48008 10.1449L7 7.66407L4.51914 10.1441C4.43108 10.2322 4.31164 10.2817 4.18711 10.2817C4.06257 10.2817 3.94314 10.2322 3.85508 10.1441C3.76702 10.0561 3.71754 9.93665 3.71754 9.81212C3.71754 9.68758 3.76702 9.56815 3.85508 9.48009L6.33594 7.00001L3.85586 4.51915C3.7678 4.43109 3.71833 4.31165 3.71833 4.18712C3.71833 4.06258 3.7678 3.94315 3.85586 3.85509C3.94392 3.76703 4.06335 3.71755 4.18789 3.71755C4.31242 3.71755 4.43186 3.76703 4.51992 3.85509L7 6.33595L9.48086 3.85469C9.56892 3.76663 9.68835 3.71716 9.81289 3.71716C9.93742 3.71716 10.0569 3.76663 10.1449 3.85469C10.233 3.94276 10.2825 4.06219 10.2825 4.18673C10.2825 4.31126 10.233 4.4307 10.1449 4.51876L7.66406 7.00001L10.1441 9.48087Z" fill="white"/>
</svg>
