<svg width="20" height="20" viewBox="0 0 20 20" fill="none" xmlns="http://www.w3.org/2000/svg">
<path fill-rule="evenodd" clip-rule="evenodd" d="M10.0946 0C8.83491 0 8.10006 0.841569 7.8901 1.26235C6.21045 5.25981 2.78815 14.0121 2.5362 17.0418C2.28425 20.0714 4.9507 20.1977 6.31542 19.8821L10.0946 17.9885L13.8739 19.8821C15.2386 20.1977 17.905 20.0714 17.6531 17.0418C17.4011 14.0121 13.9789 5.25981 12.2992 1.26235C12.0892 0.841569 11.3544 0 10.0946 0Z" fill="#343434"/>
<path d="M16.9584 10.6458L15.8214 7.41754C15.617 6.83726 15.9836 6.21253 16.5988 6.22167C17.8075 6.23963 19.289 6.59892 19.841 7.88962C20.4147 9.23115 19.3311 10.4151 18.2705 11.1377C17.7852 11.4684 17.1535 11.1997 16.9584 10.6458Z" fill="#343434"/>
<path d="M3.04159 10.6458L4.17862 7.41754C4.383 6.83726 4.01639 6.21253 3.40124 6.22167C2.19252 6.23963 0.711032 6.59892 0.15902 7.88962C-0.41473 9.23115 0.668934 10.4151 1.72946 11.1377C2.21478 11.4684 2.84649 11.1997 3.04159 10.6458Z" fill="#343434"/>
</svg>
