<svg width="24" height="24" viewBox="0 0 24 24" fill="none" xmlns="http://www.w3.org/2000/svg">
<path fill-rule="evenodd" clip-rule="evenodd" d="M13.0085 2.81877C12.4208 2.34166 11.5792 2.34166 10.9915 2.81877L9.2699 4.21649C9.0287 4.41232 8.7357 4.53368 8.42667 4.56577L6.22097 4.7948C5.46805 4.87298 4.87294 5.46808 4.79477 6.221L4.56574 8.4267C4.53365 8.73573 4.41229 9.02873 4.21646 9.26993L2.81874 10.9915C2.34163 11.5792 2.34163 12.4208 2.81874 13.0085L4.21646 14.7301C4.41229 14.9713 4.53365 15.2643 4.56574 15.5733L4.79477 17.779C4.87294 18.532 5.46805 19.1271 6.22097 19.2052L8.42667 19.4343C8.7357 19.4664 9.0287 19.5877 9.2699 19.7836L10.9915 21.1813C11.5792 21.6584 12.4208 21.6584 13.0085 21.1813L14.7301 19.7836C14.9713 19.5877 15.2643 19.4664 15.5733 19.4343L17.779 19.2052C18.5319 19.1271 19.127 18.532 19.2052 17.779L19.4342 15.5733C19.4663 15.2643 19.5877 14.9713 19.7835 14.7301L21.1812 13.0085C21.6584 12.4208 21.6584 11.5792 21.1812 10.9915L19.7835 9.26993C19.5877 9.02873 19.4663 8.73573 19.4342 8.4267L19.2052 6.221C19.127 5.46808 18.5319 4.87298 17.779 4.7948L15.5733 4.56577C15.2643 4.53368 14.9713 4.41232 14.7301 4.21649L13.0085 2.81877ZM9.49497 15.495L15.495 9.495C15.7683 9.22163 15.7683 8.77841 15.495 8.50505C15.2216 8.23168 14.7784 8.23168 14.505 8.50505L8.50502 14.505C8.23165 14.7784 8.23165 15.2216 8.50502 15.495C8.77838 15.7684 9.2216 15.7684 9.49497 15.495ZM14.191 15C14.191 14.5582 14.5491 14.2 14.991 14.2H15.009C15.4508 14.2 15.809 14.5582 15.809 15C15.809 15.4419 15.4508 15.8 15.009 15.8H14.991C14.5491 15.8 14.191 15.4419 14.191 15ZM8.99099 8.20002C8.54916 8.20002 8.19099 8.55819 8.19099 9.00002C8.19099 9.44185 8.54916 9.80002 8.99099 9.80002H9.00899C9.45082 9.80002 9.80899 9.44185 9.80899 9.00002C9.80899 8.55819 9.45082 8.20002 9.00899 8.20002H8.99099Z" fill="#8E8E8E"/>
</svg>
