<svg width="85" height="20" viewBox="0 0 85 20" fill="none" xmlns="http://www.w3.org/2000/svg">
<g clip-path="url(#clip0_30_148)">
<path d="M6.26428 10C6.26428 7.93571 7.94285 6.26428 10.0143 6.26428C12.0857 6.26428 13.7643 7.93571 13.7643 10C13.7643 12.0643 12.0857 13.7357 10.0143 13.7357C7.94285 13.7357 6.26428 12.0643 6.26428 10Z" fill="#00AA13"/>
<path d="M10 0.0442753C4.47857 0.0442753 0 4.50142 0 9.97285C0 14.1014 2.5 17.6157 6.13571 19.1871C6.39155 19.2954 6.66827 19.3453 6.94579 19.3332C7.22332 19.3212 7.49468 19.2476 7.7402 19.1176C7.98572 18.9877 8.19923 18.8047 8.36525 18.582C8.53126 18.3593 8.64561 18.1024 8.7 17.83C8.78591 17.406 8.72172 16.9654 8.51843 16.5836C8.31514 16.2018 7.98541 15.9025 7.58571 15.7371C5.33571 14.7943 3.75 12.5793 3.75 9.99356C3.75 6.5507 6.55 3.76499 10 3.76499C13.45 3.76499 16.25 6.5507 16.25 9.99356C16.25 12.5793 14.6643 14.7936 12.4143 15.7364V15.7378C12.0111 15.9006 11.6775 16.1992 11.4712 16.5819C11.2649 16.9645 11.1988 17.4073 11.2844 17.8336C11.37 18.2598 11.6019 18.6428 11.9399 18.9162C12.278 19.1896 12.701 19.3362 13.1357 19.3307C13.3832 19.3288 13.6281 19.2796 13.8571 19.1857C17.4929 17.65 20 14.1286 20 9.97142C20 4.47142 15.5214 0.0428467 10 0.0428467" fill="#00AA13"/>
<path d="M49 8.92855C49 7.12855 47.7572 5.78569 45.8286 5.78569C43.8929 5.78569 42.65 7.12855 42.65 8.92855C42.65 10.7285 43.8929 12.0714 45.8286 12.0714C47.7643 12.0714 49 10.7285 49 8.92855ZM39.5715 8.92855C39.5715 5.6214 42.2 3.06426 45.8572 3.06426C49.5357 3.06426 52.1429 5.6214 52.1429 8.92855C52.1429 12.2357 49.5357 14.7928 45.8572 14.7928C42.2 14.7928 39.5715 12.2357 39.5715 8.92855ZM51.0715 17.2143H52.7572C53.6643 17.2143 53.9786 16.8785 53.9786 16.0857V3.08569H57.0929V16.0857C57.0929 18.8285 55.9786 20 53.0143 20H51.0786V17.1714L51.0715 17.2143ZM34.5715 9.5714C34.5715 10.9428 33.1715 12.0357 31.4 12.0357C29.3929 12.0357 28.1429 10.8571 28.1429 8.89283C28.1429 7.07855 29.4786 5.83569 31.5286 5.83569C33.1572 5.83569 34.5786 6.9714 34.5786 8.25712V9.56426L34.5715 9.5714ZM34.6986 3.09283V4.39998H34.6557C33.8486 3.55712 32.52 3.09283 30.9343 3.09283C27.5272 3.09283 25.0057 5.6214 25.0057 8.89283C25.0057 12.2857 27.5915 14.7785 31.0343 14.7785C32.5772 14.7785 33.87 14.2928 34.6557 13.4285H34.6986V14.5571C34.6986 16.0714 33.3843 17.1928 31.6486 17.1928C29.8986 17.1928 28.8772 16.7014 27.9986 15.8571L25.97 17.8C27.3272 19.2357 29.3772 20.05 31.7129 20.05C35.27 20.05 37.6986 17.6714 37.6986 14.5143V3.08569H34.6915L34.6986 3.09283ZM65.0557 5.60712C66.7129 5.60712 67.87 6.46426 68.02 7.76426H62.0486C62.2172 6.46426 63.3772 5.60712 65.0557 5.60712ZM65.3772 12.3143C63.5129 12.3143 62.0486 11.1143 62.0057 9.94998H71.0772V9.0714C71.0772 5.74283 68.7629 3.09998 65.02 3.09998C61.4843 3.09998 58.9629 5.5714 58.9629 8.98569C58.9629 12.5071 61.6272 14.8285 65.5343 14.8285C67.9343 14.8285 69.6486 13.6857 70.5486 12.5857L68.4415 11.1143C67.5057 11.9857 66.6557 12.3143 65.4057 12.3143M72.9057 0.0999756H75.9129L75.9293 7.81426H75.97L80.9986 3.11426H85.0272L79.8129 8.02855L85.0057 14.8643H81.4129L77.8486 9.9214H77.8079L75.915 11.7071V14.8714H72.9079L72.9057 0.0999756Z" fill="black"/>
</g>
<defs>
<clipPath id="clip0_30_148">
<rect width="85" height="20" fill="white"/>
</clipPath>
</defs>
</svg>
