<svg width="20" height="20" viewBox="0 0 20 20" fill="none" xmlns="http://www.w3.org/2000/svg">
<path d="M5.56076 15.2183C5.27776 15.189 5.05628 14.978 5.02552 14.7085C4.99476 14.4272 4.99476 14.1459 5.02552 13.8646C5.05628 13.5951 5.27776 13.3841 5.56076 13.3548C5.85607 13.3255 6.15137 13.3255 6.44668 13.3548C6.72968 13.3841 6.95116 13.5951 6.98192 13.8646C7.01268 14.1459 7.01268 14.4272 6.98192 14.7085C6.95116 14.978 6.72968 15.189 6.44668 15.2183C6.29903 15.23 6.15137 15.2417 6.00372 15.2417C5.84991 15.2417 5.70841 15.2359 5.56076 15.2183ZM9.5597 15.2183C9.27669 15.189 9.05522 14.978 9.02446 14.7085C8.9937 14.4272 8.9937 14.1459 9.02446 13.8646C9.05522 13.5951 9.27669 13.3841 9.5597 13.3548C9.855 13.3255 10.1503 13.3255 10.4456 13.3548C10.7286 13.3841 10.9501 13.5951 10.9809 13.8646C11.0116 14.1459 11.0116 14.4272 10.9809 14.7085C10.9501 14.978 10.7286 15.189 10.4456 15.2183C10.298 15.23 10.1503 15.2417 10.0027 15.2417C9.855 15.2417 9.70735 15.2359 9.5597 15.2183ZM5.56076 11.4093C5.27776 11.38 5.05628 11.1691 5.02552 10.8995C4.99476 10.6182 4.99476 10.337 5.02552 10.0557C5.05628 9.78612 5.27776 9.57515 5.56076 9.54585C5.85607 9.51655 6.15137 9.51655 6.44668 9.54585C6.72968 9.57515 6.95116 9.78612 6.98192 10.0557C7.01268 10.337 7.01268 10.6182 6.98192 10.8995C6.95116 11.1691 6.72968 11.38 6.44668 11.4093C6.29903 11.421 6.15137 11.4328 6.00372 11.4328C5.84991 11.4328 5.70841 11.421 5.56076 11.4093ZM9.5597 11.4093C9.27669 11.38 9.05522 11.1691 9.02446 10.8995C8.9937 10.6182 8.9937 10.337 9.02446 10.0557C9.05522 9.78612 9.27669 9.57515 9.5597 9.54585C9.855 9.51655 10.1503 9.51655 10.4456 9.54585C10.7286 9.57515 10.9501 9.78612 10.9809 10.0557C11.0116 10.337 11.0116 10.6182 10.9809 10.8995C10.9501 11.1691 10.7286 11.38 10.4456 11.4093C10.298 11.421 10.1503 11.4328 10.0027 11.4328C9.855 11.4328 9.70735 11.421 9.5597 11.4093ZM13.5586 11.4093C13.2756 11.38 13.0542 11.1691 13.0234 10.8995C12.9926 10.6182 12.9926 10.337 13.0234 10.0557C13.0542 9.78612 13.2756 9.57515 13.5586 9.54585C13.8539 9.51655 14.1492 9.51655 14.4446 9.54585C14.7276 9.57515 14.949 9.78612 14.9798 10.0557C15.0106 10.337 15.0106 10.6182 14.9798 10.8995C14.949 11.1691 14.7276 11.38 14.4446 11.4093C14.2969 11.421 14.1492 11.4328 14.0016 11.4328C13.8539 11.4328 13.7063 11.421 13.5586 11.4093ZM0.103752 7.61794C-0.0685103 9.97364 -0.0254373 12.3352 0.226803 14.6909C0.515957 17.3747 2.75536 19.5078 5.57308 19.7832C6.95117 19.918 8.33541 19.9883 9.7135 20H10.2857C11.6637 19.9883 13.048 19.918 14.4261 19.7832C17.2438 19.5078 19.4832 17.3747 19.7724 14.6909C19.92 13.3314 19.9938 11.966 20 10.6065V10.3487C19.9938 9.44039 19.9631 8.52623 19.8954 7.61794H0.103752ZM12.9988 0C12.4451 0 12.0021 0.427761 12.0021 0.955157V0.996181C10.6671 0.937582 9.33207 0.937582 8.00319 0.996181V0.955157C8.00319 0.427761 7.55407 0 7.00037 0C6.44668 0 6.00372 0.427761 6.00372 0.955157V1.13097C5.86222 1.14269 5.72072 1.15441 5.57922 1.17199C2.95837 1.42983 0.835868 3.29328 0.319083 5.7193H19.6924C19.1756 3.29914 17.0531 1.42983 14.4323 1.17199C14.2908 1.15441 14.1492 1.14269 14.0016 1.13097V0.955157C14.0016 0.427761 13.5525 0 12.9988 0Z" fill="#343434"/>
</svg>
