<svg width="24" height="24" viewBox="0 0 24 24" fill="none" xmlns="http://www.w3.org/2000/svg">
<path d="M2.3876 14.554C2.1995 14.7638 2.09097 15.0388 2.08373 15.321C2.03309 17.4626 1.96075 19.5608 2.02586 21.413C2.04033 21.7169 2.27907 21.9629 2.58293 21.9701C3.11831 21.9846 3.67539 21.9991 4.24693 21.9991C5.65048 21.9991 7.15531 21.9556 8.67462 21.9195C8.95677 21.9122 9.2317 21.8037 9.44151 21.6156C12.2993 19.0543 15.034 16.3701 17.6602 13.5773L10.4182 6.34207C7.63281 8.96122 4.94871 11.6961 2.3876 14.554ZM16.3435 2.00095C15.6707 2.00095 14.9978 2.23247 14.4697 2.69552C13.6883 3.36839 12.9214 4.04851 12.1618 4.73585L19.2663 11.8408C19.9536 11.0811 20.6337 10.307 21.3065 9.5328C22.0807 8.63563 22.2181 7.34052 21.6611 6.29142C20.7495 4.57667 19.4327 3.25987 17.7181 2.34823C17.2768 2.11671 16.8137 2.00095 16.3435 2.00095Z" fill="#343434"/>
</svg>
