<svg width="20" height="21" viewBox="0 0 20 21" fill="none" xmlns="http://www.w3.org/2000/svg">
<path fill-rule="evenodd" clip-rule="evenodd" d="M10.5476 1.31877C9.95989 0.84166 9.11828 0.84166 8.53061 1.31877L6.809 2.71649C6.56779 2.91232 6.27479 3.03368 5.96576 3.06577L3.76006 3.2948C3.00714 3.37298 2.41204 3.96808 2.33386 4.721L2.10483 6.9267C2.07275 7.23573 1.95138 7.52873 1.75556 7.76993L0.357833 9.49155C-0.119278 10.0792 -0.119278 10.9208 0.357833 11.5085L1.75556 13.2301C1.95138 13.4713 2.07275 13.7643 2.10483 14.0733L2.33386 16.279C2.41204 17.032 3.00714 17.6271 3.76006 17.7052L5.96576 17.9343C6.27479 17.9664 6.56779 18.0877 6.80899 18.2836L8.53061 19.6813C9.11828 20.1584 9.95989 20.1584 10.5476 19.6813L12.2692 18.2836C12.5104 18.0877 12.8034 17.9664 13.1124 17.9343L15.3181 17.7052C16.071 17.6271 16.6661 17.032 16.7443 16.279L16.9733 14.0733C17.0054 13.7643 17.1268 13.4713 17.3226 13.2301L18.7203 11.5085C19.1974 10.9208 19.1974 10.0792 18.7203 9.49155L17.3226 7.76993C17.1268 7.52873 17.0054 7.23573 16.9733 6.9267L16.7443 4.721C16.6661 3.96808 16.071 3.37298 15.3181 3.2948L13.1124 3.06577C12.8034 3.03368 12.5104 2.91232 12.2692 2.71649L10.5476 1.31877ZM7.03406 13.995L13.0341 7.995C13.3074 7.72163 13.3074 7.27841 13.0341 7.00505C12.7607 6.73168 12.3175 6.73168 12.0441 7.00505L6.04411 13.005C5.77074 13.2784 5.77074 13.7216 6.04411 13.995C6.31748 14.2684 6.76069 14.2684 7.03406 13.995ZM11.7301 13.5C11.7301 13.0582 12.0882 12.7 12.5301 12.7H12.5481C12.9899 12.7 13.3481 13.0582 13.3481 13.5C13.3481 13.9419 12.9899 14.3 12.5481 14.3H12.5301C12.0882 14.3 11.7301 13.9419 11.7301 13.5ZM6.53009 6.70002C6.08826 6.70002 5.73008 7.05819 5.73008 7.50002C5.73008 7.94185 6.08826 8.30002 6.53009 8.30002H6.54808C6.98991 8.30002 7.34808 7.94185 7.34808 7.50002C7.34808 7.05819 6.98991 6.70002 6.54808 6.70002H6.53009Z" fill="#F06400"/>
</svg>
