<svg width="20" height="20" viewBox="0 0 20 20" fill="none" xmlns="http://www.w3.org/2000/svg">
<path fill-rule="evenodd" clip-rule="evenodd" d="M11.0572 0.375124C10.4411 -0.125041 9.55886 -0.125041 8.9428 0.375123L7.138 1.84038C6.88514 2.04567 6.57798 2.1729 6.25402 2.20654L3.94174 2.44663C3.15245 2.52858 2.52858 3.15245 2.44663 3.94174L2.20654 6.25402C2.1729 6.57798 2.04567 6.88514 1.84038 7.138L0.375123 8.9428C-0.125041 9.55886 -0.125041 10.4411 0.375123 11.0572L1.84038 12.862C2.04567 13.1149 2.1729 13.422 2.20654 13.746L2.44663 16.0583C2.52858 16.8476 3.15245 17.4714 3.94174 17.5534L6.25402 17.7935C6.57798 17.8271 6.88514 17.9543 7.138 18.1596L8.9428 19.6249C9.55886 20.125 10.4411 20.125 11.0572 19.6249L12.862 18.1596C13.1149 17.9543 13.422 17.8271 13.746 17.7935L16.0583 17.5534C16.8476 17.4714 17.4714 16.8476 17.5534 16.0583L17.7935 13.746C17.8271 13.422 17.9543 13.1149 18.1596 12.862L19.6249 11.0572C20.125 10.4411 20.125 9.55886 19.6249 8.9428L18.1596 7.138C17.9543 6.88514 17.8271 6.57798 17.7935 6.25402L17.5534 3.94174C17.4714 3.15245 16.8476 2.52858 16.0583 2.44663L13.746 2.20654C13.422 2.1729 13.1149 2.04567 12.862 1.84038L11.0572 0.375124ZM7.37394 13.6638L13.6638 7.37393C13.9504 7.08736 13.9504 6.62273 13.6638 6.33615C13.3773 6.04958 12.9126 6.04958 12.6261 6.33615L6.33615 12.6261C6.04958 12.9126 6.04958 13.3773 6.33615 13.6638C6.62273 13.9504 7.08736 13.9504 7.37394 13.6638ZM12.2968 13.145C12.2968 12.6818 12.6723 12.3063 13.1355 12.3063H13.1544C13.6175 12.3063 13.993 12.6818 13.993 13.145C13.993 13.6081 13.6175 13.9836 13.1544 13.9836H13.1355C12.6723 13.9836 12.2968 13.6081 12.2968 13.145ZM6.84561 6.01639C6.38243 6.01639 6.00695 6.39187 6.00695 6.85504C6.00695 7.31822 6.38243 7.6937 6.84561 7.6937H6.86448C7.32766 7.6937 7.70313 7.31822 7.70313 6.85504C7.70313 6.39187 7.32766 6.01639 6.86448 6.01639H6.84561Z" fill="#343434"/>
</svg>
