<svg width="20" height="20" viewBox="0 0 20 20" fill="none" xmlns="http://www.w3.org/2000/svg">
<circle cx="10" cy="10" r="10" fill="#E5F9D4"/>
<path fill-rule="evenodd" clip-rule="evenodd" d="M10.071 2C9.12618 2 8.57504 2.63118 8.41758 2.94677C7.15783 5.94486 4.59111 12.5091 4.40215 14.7813C4.21319 17.0536 6.21303 17.1482 7.23657 16.9116L10.071 15.4914L12.9054 16.9116C13.9289 17.1482 15.9288 17.0536 15.7398 14.7813C15.5509 12.5091 12.9841 5.94486 11.7244 2.94677C11.5669 2.63118 11.0158 2 10.071 2Z" fill="#006C02"/>
<path d="M15.1279 9.72659L14.4632 7.83957C14.2588 7.25929 14.6285 6.63225 15.2419 6.67956C16.0823 6.74438 17.0103 7.05137 17.3806 7.91717C17.7708 8.82965 17.1387 9.64491 16.4243 10.1931C15.9584 10.5506 15.323 10.2805 15.1279 9.72659Z" fill="#006C02"/>
<path d="M4.87215 9.72659L5.53677 7.83957C5.74115 7.25929 5.37153 6.63225 4.75813 6.67956C3.91768 6.74438 2.98974 7.05137 2.61945 7.91717C2.2292 8.82965 2.86133 9.64491 3.5757 10.1931C4.04162 10.5506 4.67705 10.2805 4.87215 9.72659Z" fill="#006C02"/>
</svg>
